<svg width="168" height="208" viewBox="0 0 168 208" fill="none" xmlns="http://www.w3.org/2000/svg">
<rect width="168" height="208" rx="20" fill="#512BD4"/>
<circle cx="84" cy="60" r="25" fill="white"/>
<path d="M60 110H108C118.6 110 125 116.4 125 127C125 137.6 118.6 144 108 144H60C49.4 144 43 137.6 43 127C43 116.4 49.4 110 60 110Z" fill="white"/>
<path d="M55 150H113C123.6 150 130 156.4 130 167C130 177.6 123.6 184 113 184H55C44.4 184 38 177.6 38 167C38 156.4 44.4 150 55 150Z" fill="white"/>
</svg>