<svg width="456" height="456" viewBox="0 0 456 456" fill="none" xmlns="http://www.w3.org/2000/svg">
<rect width="456" height="456" rx="80" fill="#512BD4"/>
<path d="M228 100C164.8 100 114 150.8 114 214C114 277.2 164.8 328 228 328C291.2 328 342 277.2 342 214C342 150.8 291.2 100 228 100ZM228 286C182.4 286 146 249.6 146 214C146 178.4 182.4 142 228 142C273.6 142 310 178.4 310 214C310 249.6 273.6 286 228 286Z" fill="white"/>
<path d="M190 170H266C276.6 170 285 178.4 285 189C285 199.6 276.6 208 266 208H190C180.4 208 172 199.6 172 189C172 178.4 180.4 170 190 170Z" fill="#512BD4"/>
<path d="M180 235H276C286.6 235 295 243.4 295 254C295 264.6 286.6 273 276 273H180C170.4 273 162 264.6 162 254C162 243.4 170.4 235 180 235Z" fill="white"/>
</svg>