<svg width="456" height="456" viewBox="0 0 456 456" fill="none" xmlns="http://www.w3.org/2000/svg">
<rect width="456" height="456" fill="#512BD4"/>
<circle cx="228" cy="228" r="120" fill="white"/>
<path d="M228 150C186.4 150 153 183.4 153 225C153 266.6 186.4 300 228 300C269.6 300 303 266.6 303 225C303 183.4 269.6 150 228 150ZM228 270C200.8 270 180 249.2 180 225C180 200.8 200.8 180 228 180C255.2 180 276 200.8 276 225C276 249.2 255.2 270 228 270Z" fill="#512BD4"/>
<path d="M210 205H246C251.6 205 256 209.4 256 215C256 220.6 251.6 225 246 225H210C204.4 225 200 220.6 200 215C200 209.4 204.4 205 210 205Z" fill="white"/>
<path d="M200 245H256C261.6 245 266 249.4 266 255C266 260.6 261.6 265 256 265H200C194.4 265 190 260.6 190 255C190 249.4 194.4 245 200 245Z" fill="white"/>
</svg>